<?xml version="1.0" encoding="UTF-8"?>
<svg id="LOGO" xmlns="http://www.w3.org/2000/svg" viewBox="0 0 400 400">
  <defs>
    <style>
      .cls-1 {
        fill: #0057e1;
        stroke-width: 0px;
      }
    </style>
  </defs>
  <g>
    <path class="cls-1" d="M51.08,137.14c9.86.96,14.87,11.32,16.75,20.25.35-7.5-2.34-16-8.85-20.56-13.09-8.7-26.42,3.65-28.79,16.71,4.05-8.14,11.11-17.21,20.89-16.4Z"/>
    <path class="cls-1" d="M30.87,179.59c-1.53-3.52-2.38-7.37-3.1-11.34-.59,3.99-.41,8.17.79,12.16,3.66,13.98,19.79,19.96,29.29,7.67-10.94,7.99-22.15,3.5-26.98-8.49Z"/>
    <path class="cls-1" d="M50.2,143.41c7.01.59,9.81,9.27,11.39,15.41.69-6.53-1.39-14.91-8.04-17.86-9.65-3.55-16.91,7.44-17.8,15.81,2.96-5.6,7.57-13.34,14.45-13.36Z"/>
    <path class="cls-1" d="M34.13,166.15c-.79,2.91-.9,5.99-.49,9.05.7,4.7,2.87,9.56,7.18,12.01,4.45,2.61,10.24.45,12.75-3.75-9.08,6.06-14.92-.05-17.52-8.81-.84-2.7-1.39-5.54-1.92-8.51Z"/>
    <path class="cls-1" d="M181.37,199.2l5.81-.8,23.12,13.45,7.71-1.07-20.91-16.22-3.6-.76,21.52-24.41-9.86-2.35s-13.84,10.89-18.09,13.91c-4.25,3.01-12.42,2.91-12.42,2.91,0,0-5.19-3.44-5.62-3.55-.43-.11-13.19-4.21-13.19-4.21l7.49,7.63-17.7-6.31s-56.74-37.47-68.94-45.21c-12.18-7.75-23.16-7.51-23.16-7.51l23.04,18.07,2.78,20.12s-7.7-.74-16.53-.96c-8.84-.22-11.99,2.62-11.99,2.62-4.47-.73-10.9,2.29-10.9,2.29,1.36,3.58,10.8,5.87,10.8,5.87,1.25,8.28,18.42,20,18.42,20l-2.87,5.33c-7.81-.91-10.47,4.17-10.47,4.17,7.54,5.55,20.67,2.22,20.67,2.22-1.06-2.39-6.25-5.84-6.25-5.84l2.26-5.34c10.39,5.67,42.57,7.32,42.57,7.32l4.62,14.07c-3.32,1.13-4.26,6.65-4.26,6.65,10.7,6.2,19.36-.99,19.36-.99-3.27-3.86-11.78-6.78-11.78-6.78l-1.52-12.52c15.57.16,39.54-1.03,39.54-1.03l39.67,25.01c3.69,2.33,7.94,3.64,12.3,3.81l16.05.61-47.67-30.16ZM80.22,146.07l13.33,10.21-10.79,6.66-2.54-16.86ZM105.98,178.11c-.93,1.17-2.63,1.38-3.81.45l-13.66-10.66c-1.46-1.13-1.39-3.35.13-4.39l6.78-3.99c.93-.63,2.14-.64,3.07-.01l11.69,7.96c1.3.88,1.58,2.7.6,3.94l-4.81,6.7ZM113.73,181.81c-1.28-.3-1.91-1.74-1.26-2.88l2.91-5.15c.54-.96,1.79-1.24,2.7-.61l8.66,6.08-2.88,4.9-10.13-2.35ZM126.63,184.8l2.34-3.98,9.61,6.74-11.95-2.77Z"/>
  </g>
  <path class="cls-1" d="M296.26,147.21c-4.09,0-8.17.33-12.21.99-12.31-29.08-40.59-48.08-72.82-48.08-16.83,0-32.95,5.27-46.38,15-4.6,3.33-5.29,9.91-1.37,14.02,3.26,3.42,8.51,3.77,12.34,1,10.4-7.52,22.91-11.54,35.95-11.42,26.79.23,50.05,18.63,57.81,44.28l2.25,7.44,8.77-2.47c5.11-1.44,10.38-2.17,15.65-2.17,32.4,0,58.66,26.84,57.69,59.46-.86,28.95-23.54,52.09-51.7,55.51,2.49-3.52,4.41-7.45,5.64-11.71,4.58-15.81-1.81-32.67-16.77-44.05l-23.19-17.22c-4.12-3.06-9.94-2.2-13,1.92-3.06,4.12-2.2,9.94,1.92,13l23.1,17.15c8.88,6.76,12.55,15.51,10.09,24.02-2.75,9.5-12.33,16.11-25.03,17.33h-116.3c-25.64,0-47.68-20.97-47.53-46.61.02-2.67.25-5.31.72-7.9.79-4.43-1.55-8.8-5.78-10.32l-.49-.18c-5.27-1.9-10.96,1.41-11.97,6.92-.69,3.75-1.04,7.58-1.06,11.44-.17,35.89,30.51,65.24,66.39,65.24h78.34c2.96.05,7.85.07,13.19.07,7.89,0,16.72-.04,21.71-.07h32.61c41.67,0,76.72-32.81,77.71-74.46,1.01-42.91-33.59-78.14-76.28-78.14Z"/>
  <g>
    <path class="cls-1" d="M166.43,164.75c-2.11,0-3.9-1.62-4.08-3.75-1.89-22.26-21.55-38.83-43.8-36.94-2.23.19-4.24-1.48-4.43-3.74-.19-2.26,1.48-4.24,3.74-4.43,12.95-1.1,25.56,2.92,35.52,11.32,9.96,8.4,16.05,20.15,17.15,33.1.19,2.26-1.48,4.24-3.74,4.43-.12.01-.24.02-.35.02Z"/>
    <path class="cls-1" d="M152.97,165.89c-2.11,0-3.9-1.62-4.08-3.75-1.26-14.84-14.37-25.88-29.2-24.63-2.23.2-4.24-1.48-4.43-3.74-.19-2.26,1.48-4.24,3.74-4.43,19.37-1.65,36.43,12.76,38.07,32.11.19,2.26-1.48,4.24-3.74,4.43-.12.01-.24.02-.35.02Z"/>
    <path class="cls-1" d="M139.52,167.03c-2.11,0-3.9-1.62-4.08-3.75-.63-7.42-7.19-12.95-14.6-12.31-2.23.19-4.24-1.48-4.43-3.74-.19-2.26,1.48-4.24,3.74-4.43,5.78-.48,11.4,1.3,15.84,5.04,4.43,3.74,7.14,8.98,7.63,14.76.19,2.26-1.48,4.24-3.74,4.43-.12.01-.24.02-.35.02Z"/>
  </g>
</svg>