<?xml version="1.0" encoding="UTF-8"?>
<svg id="LOGO" xmlns="http://www.w3.org/2000/svg" viewBox="0 0 680 138.84">
  <defs>
    <style>
      .cls-1 {
        fill: #0057e1;
        stroke-width: 0px;
      }
    </style>
  </defs>
  <g>
    <g>
      <path class="cls-1" d="M27.7,40.91c4.81.47,7.25,5.52,8.17,9.87.17-3.66-1.14-7.8-4.32-10.02-6.38-4.24-12.88,1.78-14.04,8.15,1.97-3.97,5.42-8.39,10.18-7.99Z"/>
      <path class="cls-1" d="M17.85,61.6c-.74-1.72-1.16-3.59-1.51-5.53-.29,1.94-.2,3.98.38,5.93,1.78,6.81,9.65,9.73,14.28,3.74-5.33,3.9-10.8,1.71-13.15-4.14Z"/>
      <path class="cls-1" d="M27.27,43.97c3.42.29,4.78,4.52,5.55,7.52.34-3.18-.68-7.27-3.92-8.71-4.71-1.73-8.24,3.63-8.68,7.71,1.44-2.73,3.69-6.5,7.04-6.51Z"/>
      <path class="cls-1" d="M19.44,55.05c-.38,1.42-.44,2.92-.24,4.41.34,2.29,1.4,4.66,3.5,5.86,2.17,1.27,4.99.22,6.22-1.83-4.43,2.96-7.27-.03-8.54-4.29-.41-1.32-.68-2.7-.94-4.15Z"/>
      <path class="cls-1" d="M91.22,71.16l2.83-.39,11.27,6.56,3.76-.52-10.19-7.91-1.75-.37,10.49-11.9-4.81-1.15s-6.75,5.31-8.82,6.78c-2.07,1.47-6.05,1.42-6.05,1.42,0,0-2.53-1.68-2.74-1.73-.21-.05-6.43-2.05-6.43-2.05l3.65,3.72-8.63-3.08s-27.66-18.27-33.61-22.04c-5.94-3.78-11.29-3.66-11.29-3.66l11.23,8.81,1.36,9.81s-3.76-.36-8.06-.47c-4.31-.11-5.84,1.28-5.84,1.28-2.18-.36-5.31,1.12-5.31,1.12.66,1.75,5.26,2.86,5.26,2.86.61,4.03,8.98,9.75,8.98,9.75l-1.4,2.6c-3.81-.44-5.1,2.03-5.1,2.03,3.68,2.71,10.07,1.08,10.07,1.08-.52-1.17-3.05-2.85-3.05-2.85l1.1-2.6c5.07,2.76,20.75,3.57,20.75,3.57l2.25,6.86c-1.62.55-2.08,3.24-2.08,3.24,5.22,3.02,9.44-.48,9.44-.48-1.6-1.88-5.74-3.31-5.74-3.31l-.74-6.1c7.59.08,19.28-.5,19.28-.5l19.34,12.19c1.8,1.14,3.87,1.78,6,1.86l7.83.3-23.24-14.7ZM41.91,45.26l6.5,4.98-5.26,3.24-1.24-8.22ZM54.47,60.88c-.45.57-1.28.67-1.86.22l-6.66-5.2c-.71-.55-.68-1.63.06-2.14l3.31-1.94c.45-.31,1.04-.31,1.49,0l5.7,3.88c.63.43.77,1.31.29,1.92l-2.34,3.27ZM58.25,62.69c-.62-.15-.93-.85-.62-1.4l1.42-2.51c.26-.47.87-.6,1.31-.3l4.22,2.96-1.41,2.39-4.94-1.14ZM64.54,64.15l1.14-1.94,4.69,3.29-5.83-1.35Z"/>
    </g>
    <path class="cls-1" d="M147.23,45.82c-1.99,0-3.98.16-5.95.48-6-14.18-19.79-23.44-35.5-23.44-8.2,0-16.06,2.57-22.61,7.31-2.24,1.62-2.58,4.83-.67,6.83,1.59,1.67,4.15,1.84,6.01.49,5.07-3.67,11.17-5.62,17.53-5.57,13.06.11,24.4,9.08,28.18,21.59l1.1,3.63,4.28-1.2c2.49-.7,5.06-1.06,7.63-1.06,15.8,0,28.6,13.09,28.12,28.99-.42,14.12-11.48,25.4-25.21,27.06,1.22-1.72,2.15-3.63,2.75-5.71,2.23-7.71-.88-15.93-8.18-21.48l-11.31-8.39c-2.01-1.49-4.85-1.07-6.34.94-1.49,2.01-1.07,4.85.94,6.34l11.26,8.36c4.33,3.29,6.12,7.56,4.92,11.71-1.34,4.63-6.01,7.86-12.2,8.45h-56.7c-12.5,0-23.25-10.22-23.17-22.72,0-1.3.12-2.59.35-3.85.38-2.16-.76-4.29-2.82-5.03l-.24-.09c-2.57-.92-5.34.69-5.83,3.37-.34,1.83-.51,3.69-.52,5.58-.08,17.5,14.87,31.81,32.37,31.81h38.19c1.44.02,3.83.03,6.43.03,3.85,0,8.15-.02,10.58-.03h15.9c20.31,0,37.41-15.99,37.89-36.3.49-20.92-16.38-38.09-37.19-38.09Z"/>
    <g>
      <path class="cls-1" d="M83.94,54.37c-1.03,0-1.9-.79-1.99-1.83-.92-10.85-10.51-18.93-21.35-18.01-1.09.09-2.07-.72-2.16-1.82-.09-1.1.72-2.07,1.82-2.16,6.31-.54,12.46,1.42,17.32,5.52,4.85,4.09,7.82,9.83,8.36,16.14.09,1.1-.72,2.07-1.82,2.16-.06,0-.11,0-.17,0Z"/>
      <path class="cls-1" d="M77.38,54.92c-1.03,0-1.9-.79-1.99-1.83-.61-7.23-7.01-12.62-14.24-12.01-1.09.1-2.07-.72-2.16-1.82-.09-1.1.72-2.07,1.82-2.16,9.44-.8,17.76,6.22,18.56,15.65.09,1.1-.72,2.07-1.82,2.16-.06,0-.11,0-.17,0Z"/>
      <path class="cls-1" d="M70.82,55.48c-1.03,0-1.9-.79-1.99-1.83-.31-3.62-3.51-6.31-7.12-6-1.09.09-2.07-.72-2.16-1.82-.09-1.1.72-2.07,1.82-2.16,2.82-.24,5.56.63,7.72,2.46s3.48,4.38,3.72,7.19c.09,1.1-.72,2.07-1.82,2.16-.06,0-.11,0-.17,0Z"/>
    </g>
  </g>
  <g>
    <path class="cls-1" d="M201.71,70.08c0-14.21,11.37-25.72,25.5-25.72,8.23,0,15.45,3.86,19.96,9.76l-6.7,5.1c-3.06-4.01-7.58-6.56-13.04-6.56-9.54,0-16.76,7.8-16.76,17.41s7.07,17.41,16.76,17.41c5.46,0,9.98-2.55,13.04-6.48l6.7,5.03c-4.52,5.97-11.73,9.76-19.96,9.76-14.13,0-25.5-11.51-25.5-25.72Z"/>
    <path class="cls-1" d="M254.25,42.9h8.45v52.24h-8.45v-52.24Z"/>
    <path class="cls-1" d="M270.64,78.02c0-10.78,8.38-17.63,18.07-17.63s18.14,6.85,18.14,17.63-8.45,17.85-18.14,17.85-18.07-7.07-18.07-17.85ZM298.33,78.02c0-5.83-4.37-9.76-9.62-9.76s-9.54,3.93-9.54,9.76,4.3,9.98,9.54,9.98,9.62-4.01,9.62-9.98Z"/>
    <path class="cls-1" d="M347,61.11v34.03h-8.45v-5.32c-1.75,4.23-7.14,6.12-10.56,6.12-8.74,0-13.63-5.83-13.63-15.74v-19.09h8.45v18.29c0,5.46,3.28,8.23,7.07,8.23s8.67-2.11,8.67-8.74v-17.78h8.45Z"/>
    <path class="cls-1" d="M391.53,42.9v52.24h-8.45v-4.59c-2.33,3.64-7.14,5.32-11.29,5.32-8.96,0-16.76-6.92-16.76-17.78s7.72-17.71,16.69-17.71c4.3,0,9.03,1.68,11.37,5.25v-22.73h8.45ZM382.93,78.02c0-5.97-4.95-9.76-9.84-9.76-5.25,0-9.54,4.08-9.54,9.76s4.3,9.91,9.54,9.91,9.84-3.93,9.84-9.91Z"/>
    <path class="cls-1" d="M439.47,80.86c0,7.07-5.03,14.28-15.45,14.28h-21.06v-50.2h19.53c8.74,0,14.28,5.25,14.28,12.9,0,3.93-1.46,8.67-6.56,10.49,6.12,1.24,9.25,6.99,9.25,12.53ZM411.86,52.88v12.31h10.27c3.72,0,5.76-2.48,5.76-6.12s-1.89-6.19-5.76-6.19h-10.27ZM430.51,79.98c0-3.57-2.33-7.29-7.65-7.29h-11v14.5h10.78c5.17,0,7.87-3.42,7.87-7.21Z"/>
    <path class="cls-1" d="M482.32,61.11v34.03h-8.45v-4.59c-2.33,3.64-7.14,5.32-11.29,5.32-8.96,0-16.76-6.92-16.76-17.78s7.72-17.71,16.69-17.71c4.3,0,9.03,1.68,11.37,5.25v-4.52h8.45ZM473.73,78.02c0-5.97-4.95-9.76-9.84-9.76-5.25,0-9.54,4.08-9.54,9.76s4.3,9.91,9.54,9.91,9.84-3.93,9.84-9.91Z"/>
    <path class="cls-1" d="M490.05,84.5h7.94c0,2.33,2.04,4.52,5.61,4.52,3.35,0,5.54-1.53,5.54-3.72,0-1.89-1.46-2.77-4.01-3.35l-4.52-1.17c-7.65-2.04-9.62-6.12-9.62-10.42,0-5.32,5.25-9.98,12.68-9.98,6.05,0,12.9,2.99,12.82,10.64h-8.09c0-2.4-2.11-3.86-4.52-3.86-2.62,0-4.44,1.46-4.44,3.57,0,1.75,1.68,2.77,3.64,3.21l5.46,1.46c7.65,1.97,9.03,6.78,9.03,9.91,0,6.92-6.92,10.56-13.84,10.56s-13.55-4.08-13.7-11.37Z"/>
    <path class="cls-1" d="M558.4,81.08h-26.3c.95,4.74,4.59,7.14,9.62,7.14,3.72,0,7.21-1.46,9.25-4.23l5.61,4.3c-3.13,4.95-9.11,7.58-15.3,7.58-10.2,0-17.92-7.14-17.92-17.78s8.16-17.71,17.85-17.71,17.41,6.78,17.41,17.41c0,.95-.07,2.04-.22,3.28ZM550.17,75.18c-.51-4.66-4.08-7.36-8.82-7.36s-8.23,2.19-9.25,7.36h18.07Z"/>
    <path class="cls-1" d="M564.52,70.15c0-14.28,11.22-25.79,25.57-25.79,7.21,0,13.62,2.91,18,7.5l-6.41,5.61c-2.99-2.99-7.07-4.88-11.58-4.88-9.4,0-16.61,7.87-16.61,17.56s7.21,17.63,16.61,17.63c7.36,0,12.97-3.72,14.21-9.91.07-.36.22-.73.22-1.17h-14.35v-7.43h24.04c0,18.29-9.76,26.59-24.12,26.59s-25.57-11.58-25.57-25.72Z"/>
    <path class="cls-1" d="M649.27,82.83h-19.67l-4.37,12.31h-9.47l18.87-50.2h9.62l18.8,50.2h-9.4l-4.37-12.31ZM646.57,75.1l-7.14-20.25-7.14,20.25h14.28Z"/>
  </g>
</svg>